HIERARCHY
ROOT hip
{
	OFFSET 0.000000 0.000000 0.000000 
	CHANNELS 6 Xposition Yposition Zposition Xrotation Zrotation Yrotation
	JOINT abdomen
	{
		OFFSET 0.000000 3.402643 0.000000 
		CHANNELS 3 Xrotation Zrotation Yrotation
		JOINT chest
		{
			OFFSET 0.000000 8.438565 -0.680529 
			CHANNELS 3 Xrotation Zrotation Yrotation
			JOINT neck
			{
				OFFSET 0.000000 10.207942 -0.272212 
				CHANNELS 3 Xrotation Zrotation Yrotation
				JOINT head
				{
					OFFSET 0.000000 3.130431 0.000000 
					CHANNELS 3 Xrotation Zrotation Yrotation
					End Site
					{
						OFFSET 0.000000 3.130435 0.000000 
					}
				}
			}
			JOINT lCollar
			{
				OFFSET 3.470700 6.669187 -0.816635 
				CHANNELS 3 Yrotation Zrotation Xrotation
				JOINT lShldr
				{
					OFFSET 3.198488 0.000000 0.000000 
					CHANNELS 3 Zrotation Yrotation Xrotation
					JOINT lForeArm
					{
						OFFSET 10.139888 0.000000 0.000000 
						CHANNELS 3 Yrotation Zrotation Xrotation
						JOINT lHand
						{
							OFFSET 8.370511 0.000000 0.000000 
							CHANNELS 3 Zrotation Yrotation Xrotation
							End Site
							{
								OFFSET 4.083176 0.000000 0.000000 
							}
						}
					}
				}
			}
			JOINT rCollar
			{
				OFFSET -3.470700 6.669187 -0.816635 
				CHANNELS 3 Yrotation Zrotation Xrotation
				JOINT rShldr
				{
					OFFSET -3.198488 0.000000 0.000000 
					CHANNELS 3 Zrotation Yrotation Xrotation
					JOINT rForeArm
					{
						OFFSET -10.139888 0.000000 0.000000 
						CHANNELS 3 Yrotation Zrotation Xrotation
						JOINT rHand
						{
							OFFSET -8.370511 0.000000 0.000000 
							CHANNELS 3 Zrotation Yrotation Xrotation
							End Site
							{
								OFFSET -4.083176 0.000000 0.000000 
							}
						}
					}
				}
			}
		}
	}
	JOINT lThigh
	{
		OFFSET 5.308129 -1.633274 1.361059 
		CHANNELS 3 Xrotation Zrotation Yrotation
		JOINT lShin
		{
			OFFSET -2.041588 -20.007561 0.000000 
			CHANNELS 3 Xrotation Zrotation Yrotation
			JOINT lFoot
			{
				OFFSET 0.000000 -19.190928 -1.224953 
				CHANNELS 3 Xrotation Yrotation Zrotation
				End Site
				{
					OFFSET 0.000000 -2.449906 4.627600 
				}
			}
		}
	}
	JOINT rThigh
	{
		OFFSET -5.308129 -1.633274 1.361059 
		CHANNELS 3 Xrotation Zrotation Yrotation
		JOINT rShin
		{
			OFFSET 2.041588 -20.007561 0.000000 
			CHANNELS 3 Xrotation Zrotation Yrotation
			JOINT rFoot
			{
				OFFSET 0.000000 -19.190928 -1.224953 
				CHANNELS 3 Xrotation Yrotation Zrotation
				End Site
				{
					OFFSET 0.000000 -2.449906 4.627600 
				}
			}
		}
	}
}
MOTION
Frames: 18
Frame Time: 0.016667
-0.704066 52.115311 -0.067233 -10.715726 5.686479 28.984478 27.213978 0.868283 1.547181 -0.195718 3.212648 -1.085068 -4.882713 -0.665355 0.041295 12.860405 4.046399 -36.502041 -4.323166 -10.164617 -0.527223 -48.519108 -13.528530 7.970393 -65.772354 -5.000000 8.040728 -19.675781 -15.489578 32.519821 3.601778 15.000974 -0.801511 55.548607 13.445727 15.751987 69.375450 -5.000000 -11.137271 2.875962 -3.799861 -7.076373 6.308568 22.401670 -1.443702 4.253409 -6.497495 -0.772890 -1.719759 -10.301861 -19.008646 25.657543 -7.812501 -24.359310 7.670685 1.447097 0.157992 -13.457053 -8.759792 10.097096 
-0.706254 52.112732 -0.059368 -10.697317 5.692876 29.024258 27.174797 0.873138 1.538623 -0.187173 3.222400 -1.094803 -4.863086 -0.695783 0.036017 12.829226 4.062099 -36.502735 -4.333024 -10.174369 -0.527726 -48.513592 -13.490129 7.924188 -65.768013 -5.000000 8.055354 -19.678659 -15.461501 32.536995 3.621168 14.991219 -0.801007 55.542236 13.423748 15.718022 69.397560 -5.000000 -11.126937 2.847523 -3.870999 -7.106443 6.297704 22.426205 -1.471557 4.247558 -6.512972 -0.781934 -1.734322 -10.322474 -19.059685 25.654692 -7.793522 -24.393642 7.682455 1.439059 0.148388 -13.492070 -8.747941 10.113324 
-0.709754 52.109383 -0.046789 -10.703425 5.707800 29.064039 27.155260 0.872827 1.538492 -0.168741 3.222385 -1.114303 -4.882652 -0.744062 0.043314 12.803178 4.069437 -36.512455 -4.334866 -10.183383 -0.537813 -48.499077 -13.459460 7.885313 -65.762215 -5.000000 8.070436 -19.718523 -15.423817 32.554676 3.640558 14.981463 -0.800502 55.559898 13.390914 15.669764 69.441811 -5.000000 -11.106267 2.792231 -4.012421 -7.185789 6.297996 22.427618 -1.511434 4.255194 -6.519668 -0.783022 -1.722508 -10.315459 -19.055250 25.668652 -7.783755 -24.410692 7.733475 1.429765 0.160221 -13.520573 -8.792414 10.110830 
-0.714128 52.105515 -0.031066 -10.714721 5.748306 29.105768 27.155289 0.868750 1.546695 -0.139865 3.212613 -1.133820 -4.911988 -0.792341 0.050610 12.785501 4.075745 -36.542336 -4.315521 -10.202891 -0.538818 -48.493622 -13.421042 7.839126 -65.746124 -5.000000 8.091890 -19.780813 -15.383722 32.579102 3.669572 14.961958 -0.799493 55.572403 13.368736 15.600820 69.488037 -5.000000 -11.077744 2.727672 -4.202557 -7.315292 6.298356 22.429373 -1.561280 4.262794 -6.526323 -0.793860 -1.746038 -10.339127 -19.067539 25.714729 -7.774264 -24.438555 7.757391 1.409266 0.150793 -13.573521 -8.789249 10.121535 
-0.718258 52.101898 -0.015615 -10.729749 5.779698 29.157221 27.135609 0.872149 1.537539 -0.120882 3.212606 -1.153336 -4.941188 -0.842080 0.048252 12.758052 4.082046 -36.572212 -4.304187 -10.223130 -0.530239 -48.481190 -13.383038 7.806427 -65.741753 -5.000000 8.106538 -19.849075 -15.341640 32.597218 3.688821 14.942450 -0.798485 55.596455 13.335938 15.541592 69.545326 -5.000000 -11.044060 2.670393 -4.372847 -7.433841 6.307853 22.428211 -1.600046 4.282630 -6.536710 -0.795904 -1.766505 -10.336927 -19.038429 25.760073 -7.764354 -24.455870 7.800745 1.390555 0.142182 -13.614328 -8.827593 10.120324 
-0.721407 52.099316 -0.001250 -10.725188 5.811055 29.207695 27.115444 0.857301 1.521539 -0.121013 3.222371 -1.163101 -4.911918 -0.871047 0.052630 12.707832 4.081016 -36.591667 -4.323904 -10.242635 -0.531245 -48.459969 -13.332622 7.770336 -65.737381 -5.000000 8.117855 -19.919235 -15.269401 32.583824 3.698445 14.932697 -0.797980 55.606403 13.297797 15.496231 69.580490 -5.000000 -11.020720 2.650828 -4.481192 -7.504306 6.297009 22.411974 -1.632906 4.313350 -6.528339 -0.769258 -1.745513 -10.401719 -19.071192 25.778492 -7.744455 -24.500095 7.851613 1.381195 0.154215 -13.672243 -8.841388 10.121477 
-0.724557 52.096737 0.013117 -10.720571 5.842372 29.259171 27.095146 0.846155 1.496508 -0.120720 3.241908 -1.153349 -4.892415 -0.900015 0.057007 12.663451 4.072146 -36.611122 -4.333947 -10.271891 -0.532752 -48.440796 -13.274873 7.740454 -65.732994 -5.000000 8.129169 -19.986940 -15.200559 32.561447 3.707930 14.913192 -0.796971 55.627617 13.262561 15.461035 69.613686 -5.000000 -11.005217 2.632034 -4.599717 -7.565274 6.297297 22.413368 -1.672785 4.325440 -6.531993 -0.779961 -1.760091 -10.451339 -19.104105 25.796658 -7.724631 -24.514256 7.876246 1.359250 0.124946 -13.683310 -8.873538 10.104129 
-0.726675 52.094154 0.027429 -10.715892 5.873652 29.309664 27.085268 0.846392 1.495941 -0.121694 3.232129 -1.182616 -4.892455 -0.938638 0.062845 12.622307 4.070602 -36.640301 -4.343806 -10.281644 -0.533255 -48.429302 -13.243231 7.715129 -65.727150 -5.000000 8.147602 -20.053350 -15.151833 32.559978 3.705195 14.904071 -0.787050 55.630814 13.251570 15.431983 69.644920 -5.000000 -10.992651 2.550819 -4.686931 -7.629698 6.279091 22.410458 -1.736012 4.340640 -6.545382 -0.782155 -1.736438 -10.387341 -19.084543 25.824888 -7.734848 -24.578043 7.905383 1.360627 0.136237 -13.725823 -8.868615 10.105489 
-0.728536 52.091579 0.041731 -10.707352 5.913972 29.351461 27.075064 0.833960 1.499717 -0.112761 3.212584 -1.202118 -4.892324 -0.969066 0.057568 12.585776 4.077405 -36.660454 -4.343899 -10.291396 -0.533757 -48.407879 -13.212887 7.685356 -65.719810 -5.000000 8.169812 -20.114122 -15.119850 32.548721 3.714961 14.904071 -0.787050 55.637379 13.238010 15.418343 69.672241 -5.000000 -10.985945 2.458778 -4.765976 -7.691940 6.288169 22.389015 -1.777152 4.340578 -6.545295 -0.801647 -1.760266 -10.370644 -19.093046 25.842815 -7.744351 -24.621408 7.936253 1.349772 0.156705 -13.744717 -8.911882 10.103494 
-0.730452 52.088486 0.055001 -10.703570 5.945745 29.392271 27.055519 0.833661 1.499601 -0.093641 3.202812 -1.211869 -4.902110 -0.988377 0.060486 12.566786 4.060709 -36.679214 -4.343899 -10.291396 -0.533757 -48.395271 -13.194941 7.661194 -65.715401 -5.000000 8.181129 -20.143557 -15.080723 32.544140 3.717555 14.903439 -0.796467 55.640358 13.240576 15.392000 69.688492 -5.000000 -10.984389 2.397366 -4.850960 -7.757501 6.288879 22.369890 -1.819651 4.340612 -6.545338 -0.791901 -1.734345 -10.343322 -19.088560 25.884569 -7.744895 -24.652136 7.957742 1.341735 0.147562 -13.780261 -8.932019 10.101693 
-0.732442 52.084614 0.066725 -10.718141 5.959907 29.442780 27.035946 0.836834 1.491025 -0.064891 3.202804 -1.221620 -4.931417 -0.998033 0.061946 12.574564 4.037213 -36.677834 -4.343992 -10.301147 -0.534260 -48.380653 -13.184288 7.630855 -65.713928 -5.000000 8.184900 -20.126358 -15.051570 32.560574 3.737086 14.903435 -0.796467 55.644894 13.248622 15.375838 69.691696 -5.000000 -10.995831 2.394061 -4.938606 -7.808754 6.298231 22.368011 -1.838484 4.352818 -6.548962 -0.792856 -1.783045 -10.341110 -19.105406 25.889387 -7.705453 -24.670130 7.992268 1.310326 0.157526 -13.840689 -8.973119 10.099607 
-0.734435 52.080746 0.078448 -10.723937 5.974623 29.482580 27.016596 0.852357 1.477293 -0.045359 3.202804 -1.221620 -4.960714 -0.998033 0.061946 12.592106 4.013717 -36.676468 -4.343992 -10.301147 -0.534260 -48.376877 -13.178750 7.607833 -65.712456 -5.000000 8.192033 -20.114754 -15.005707 32.586735 3.753885 14.894319 -0.786545 55.647881 13.251195 15.349494 69.704010 -5.000000 -11.005005 2.390532 -5.036747 -7.839971 6.277973 22.384983 -1.868638 4.373928 -6.570231 -0.785359 -1.760998 -10.416793 -19.111063 25.927538 -7.685815 -24.694241 8.014361 1.302389 0.128880 -13.877337 -8.955829 10.117517 
-0.735074 52.078163 0.091396 -10.725895 5.998396 29.513702 27.026520 0.845176 1.494784 -0.056764 3.202780 -1.270402 -4.941226 -1.036656 0.067783 12.546511 4.021040 -36.686874 -4.316560 -10.310165 -0.546091 -48.378891 -13.171449 7.614014 -65.680107 -5.000000 8.205050 -20.158861 -15.010871 32.613297 3.785633 14.883924 -0.795457 55.652924 13.232180 15.325664 69.720268 -5.000000 -11.003391 2.353405 -5.041272 -7.855979 6.298508 22.369394 -1.878363 4.379219 -6.554783 -0.805555 -1.812819 -10.382385 -19.125992 25.945082 -7.695450 -24.687508 8.042695 1.310639 0.130737 -13.892076 -8.975498 10.107137 
-0.735712 52.075588 0.104345 -10.719093 6.022733 29.535141 27.017044 0.838035 1.512950 -0.068169 3.202756 -1.319184 -4.931509 -1.075279 0.073620 12.509992 4.027850 -36.706333 -4.297123 -10.319920 -0.546595 -48.387951 -13.163737 7.608929 -65.647758 -5.000000 8.218077 -20.205429 -15.012633 32.648724 3.814790 14.874165 -0.794953 55.657974 13.213166 15.304065 69.745651 -5.000000 -11.004396 2.326473 -5.054549 -7.864259 6.298990 22.380909 -1.913337 4.380828 -6.553834 -0.786013 -1.821223 -10.442423 -19.161287 25.969952 -7.686150 -24.695110 8.065295 1.293025 0.130867 -13.947038 -9.035955 10.105173 
-0.737202 52.073784 0.115784 -10.704323 6.053803 29.585669 27.016344 0.820519 1.505078 -0.068716 3.202748 -1.339246 -4.931350 -1.096051 0.066884 12.480696 4.027850 -36.706333 -4.285584 -10.320651 -0.535265 -48.378891 -13.171449 7.614014 -65.635979 -5.000000 8.224940 -20.210802 -15.020730 32.650417 3.821967 14.874817 -0.785535 55.648296 13.215744 15.301833 69.755989 -5.000000 -11.011487 2.309731 -5.076560 -7.863087 6.298918 22.371464 -1.934464 4.380666 -6.565726 -0.786254 -1.832176 -10.498467 -19.205423 25.991077 -7.685969 -24.725348 8.085058 1.293077 0.131843 -13.979857 -9.065974 10.110456 
-0.739258 52.072495 0.126220 -10.683599 6.092735 29.646925 26.995735 0.814978 1.470485 -0.058950 3.202748 -1.339246 -4.941127 -1.105707 0.068343 12.449539 4.021549 -36.677155 -4.295350 -10.320651 -0.535265 -48.376877 -13.178750 7.607833 -65.633026 -5.000000 8.235872 -20.202290 -15.026001 32.647884 3.814790 14.874165 -0.794953 55.640167 13.223801 15.307544 69.766327 -5.000000 -11.023473 2.305382 -5.116577 -7.864179 6.269390 22.340769 -1.995547 4.400395 -6.576128 -0.778573 -1.816769 -10.467680 -19.181494 25.998642 -7.695505 -24.778662 8.104701 1.291695 0.142498 -13.997994 -9.074626 10.104600 
-0.740800 52.070942 0.136629 -10.668702 6.123720 29.698509 26.974888 0.799718 1.432232 -0.048638 3.202756 -1.328950 -4.950916 -1.125018 0.071262 12.430695 4.022058 -36.667423 -4.295350 -10.320651 -0.535265 -48.365799 -13.193762 7.606729 -65.631546 -5.000000 8.239655 -20.177427 -15.031807 32.632278 3.802436 14.874815 -0.785535 55.622097 13.247977 15.313723 69.763550 -5.000000 -11.048518 2.300570 -5.146532 -7.873840 6.259545 22.303831 -2.031286 4.422726 -6.572886 -0.780318 -1.821675 -10.463141 -19.190186 26.026714 -7.705779 -24.822433 8.125407 1.283534 0.153041 -14.044833 -9.092610 10.114652 
-0.740278 52.068363 0.146934 -10.667686 6.140091 29.709246 26.974525 0.776875 1.434048 -0.018539 3.222302 -1.328977 -4.990016 -1.153985 0.075640 12.439141 4.060195 -36.688942 -4.297218 -10.329672 -0.547099 -48.353569 -13.222495 7.606746 -65.622726 -5.000000 8.238958 -20.184809 -15.021700 32.658836 3.782905 14.874815 -0.785535 55.623383 13.267001 15.324373 69.766716 -5.000000 -11.054926 2.297571 -5.196218 -7.875188 6.268831 22.301596 -2.040156 4.419145 -6.575167 -0.799920 -1.839808 -10.475338 -19.208168 26.040134 -7.725372 -24.828634 8.153541 1.293160 0.154750 -14.041650 -9.103176 10.110188 
